<svg width="16" height="28" viewBox="0 0 16 28" fill="none" xmlns="http://www.w3.org/2000/svg">
<path d="M14.9277 8.82385L13.2761 5.85167C12.6859 4.78944 11.4448 4.2299 10.2579 4.49086L9.34936 4.69063C8.84499 5.07994 8.21364 5.31235 7.52876 5.31235C6.84179 5.31235 6.20869 5.07851 5.70361 4.68713L4.81113 4.49086C3.62428 4.22984 2.38318 4.78939 1.7929 5.85161L0.14133 8.82385C0.0643387 8.96242 0.0175599 9.11572 0.00407199 9.27366C-0.00941595 9.4316 0.0106927 9.59061 0.0630746 9.74023L1.5618 14.0197C1.77245 14.6211 2.44082 14.9274 3.03537 14.6922C3.59967 14.4689 3.8725 13.8249 3.67191 13.2521L2.34879 9.47385L3.66677 7.09156C3.79671 6.85772 4.09584 6.75612 4.30102 6.86505C4.44457 6.94129 4.80938 7.13985 5.04131 7.30932C5.40891 7.63607 5.6411 8.112 5.6411 8.64136V15.9327C5.6411 16.2152 5.58031 16.4945 5.46285 16.7514C5.34539 17.0084 5.17402 17.2371 4.96037 17.422L4.54356 17.7827V26.6165C4.54356 27.3718 5.16162 28.0081 5.91678 27.9938C6.64875 27.9799 7.23788 27.3822 7.23788 26.6469V16.1534H7.81952V18.8715C7.81952 19.6267 8.43758 20.2631 9.19274 20.2487C9.92472 20.2349 10.5138 19.6371 10.5138 18.9018V17.7727L10.1085 17.422C9.89488 17.2371 9.72352 17.0084 9.60607 16.7515C9.48862 16.4945 9.42783 16.2153 9.42784 15.9328V8.64131C9.42784 8.112 9.65998 7.63618 10.0275 7.30943C10.3886 7.06389 10.8543 6.89524 10.8543 6.89524C11.0798 6.84564 11.3154 6.95189 11.4275 7.15374L12.7202 9.47385L11.3882 13.2776C11.1832 13.8628 11.4915 14.5033 12.0767 14.7082C12.6592 14.9123 13.3015 14.6073 13.5073 14.0197L15.006 9.74023C15.0584 9.59061 15.0785 9.4316 15.065 9.27366C15.0515 9.11571 15.0047 8.96241 14.9277 8.82385Z" fill="#035C8A"/>
<path d="M3.09892 18.2341L4.5651 16.9653C4.71323 16.8372 4.83205 16.6787 4.91346 16.5006C4.99488 16.3225 5.03699 16.1289 5.03694 15.9331V8.64158C5.03694 8.10926 4.68197 7.65881 4.19647 7.51318L3.67482 8.45198H3.85872C3.88362 8.45198 3.90826 8.45688 3.93126 8.46641C3.95426 8.47593 3.97515 8.48989 3.99275 8.50749C4.01035 8.52509 4.02431 8.54599 4.03384 8.56899C4.04336 8.59198 4.04827 8.61663 4.04827 8.64152V12.3219L4.30633 13.0588C4.51086 13.6429 4.39377 14.2615 4.04827 14.7218V15.933C4.04827 15.987 4.03666 16.0404 4.01421 16.0895C3.99176 16.1386 3.959 16.1823 3.91817 16.2176L2.68697 17.2831L1.45577 16.2176C1.41493 16.1823 1.38218 16.1386 1.35973 16.0895C1.33728 16.0404 1.32566 15.987 1.32567 15.933V14.8758C1.15234 14.6934 1.01971 14.4764 0.936577 14.2389L0.336945 12.5266V15.933C0.336951 16.1288 0.379091 16.3223 0.460503 16.5005C0.541915 16.6786 0.660693 16.8371 0.808776 16.9652L2.27502 18.234V26.8405C2.20218 26.8405 2.13233 26.8694 2.08082 26.9209C2.02932 26.9724 2.00038 27.0423 2.00038 27.1151V27.7253C2.00038 27.7981 2.02932 27.868 2.08082 27.9195C2.13233 27.971 2.20218 27.9999 2.27502 27.9999H3.09897C3.17181 27.9999 3.24166 27.971 3.29317 27.9195C3.34467 27.868 3.37361 27.7981 3.37361 27.7253V27.1151C3.37361 27.0423 3.34467 26.9724 3.29317 26.9209C3.24166 26.8694 3.17181 26.8405 3.09897 26.8405V18.2341H3.09892ZM13.7434 14.8758V15.9331C13.7434 15.9871 13.7318 16.0404 13.7094 16.0895C13.6869 16.1386 13.6542 16.1823 13.6133 16.2177L12.3821 17.2831L11.1509 16.2177H11.1509C11.1164 16.2177 11.0833 16.204 11.0589 16.1796C11.0345 16.1552 11.0208 16.1221 11.0208 16.0876V14.7219C10.6753 14.2615 10.5583 13.6429 10.7628 13.0589L11.0208 12.322V8.64163C11.0208 8.61673 11.0257 8.59208 11.0353 8.56908C11.0448 8.54608 11.0587 8.52517 11.0763 8.50757C11.0939 8.48996 11.1148 8.476 11.1378 8.46647C11.1608 8.45694 11.1855 8.45203 11.2104 8.45203H11.3942L10.8726 7.51324C10.3871 7.65887 10.0321 8.10932 10.0321 8.64163V15.9331C10.0321 16.129 10.0743 16.3225 10.1557 16.5007C10.2371 16.6788 10.3559 16.8373 10.504 16.9654L11.9702 18.2342V26.8406C11.8974 26.8406 11.8275 26.8696 11.776 26.9211C11.7245 26.9726 11.6956 27.0424 11.6956 27.1153V27.7255C11.6956 27.7983 11.7245 27.8682 11.776 27.9197C11.8275 27.9712 11.8974 28.0001 11.9702 28.0001H12.7941C12.867 28.0001 12.9368 27.9712 12.9883 27.9197C13.0398 27.8682 13.0688 27.7983 13.0688 27.7255V27.1153C13.0688 27.0424 13.0398 26.9726 12.9883 26.9211C12.9368 26.8696 12.867 26.8406 12.7941 26.8406V18.2342L14.2603 16.9654C14.4085 16.8373 14.5273 16.6788 14.6087 16.5007C14.6901 16.3225 14.7322 16.129 14.7322 15.9331V12.527L14.1326 14.239C14.0494 14.4764 13.9168 14.6935 13.7434 14.8758Z" fill="#035C8A"/>
<path d="M7.52875 4.65345C8.81377 4.65345 9.85548 3.61174 9.85548 2.32673C9.85548 1.04171 8.81377 0 7.52875 0C6.24374 0 5.20203 1.04171 5.20203 2.32673C5.20203 3.61174 6.24374 4.65345 7.52875 4.65345Z" fill="#035C8A"/>
</svg>
