<svg width="31" height="30" viewBox="0 0 31 30" fill="none" xmlns="http://www.w3.org/2000/svg">
<path fill-rule="evenodd" clip-rule="evenodd" d="M24.4482 2C25.7309 2 26.7744 3.04366 26.7744 4.32627C26.7744 5.60893 25.7309 6.65237 24.4482 6.65237C23.1658 6.65237 22.1218 5.60893 22.1218 4.32627C22.1218 3.04366 23.1658 2 24.4482 2ZM16.1316 14.2699H19.7601C21.1048 14.2699 21.8248 12.8145 22.4602 11.5304C22.9797 10.4821 23.4699 9.49168 24.1391 9.49168H25.4075C25.7583 9.49168 26.0433 9.77695 26.0433 10.1275V13.4622C25.5255 13.5902 25.1406 14.0573 25.1406 14.6138V19.7213C25.1406 21.3431 23.8206 22.6627 22.1986 22.6627H21.3544V18.7404H21.9836C22.6982 18.7404 23.2796 18.1591 23.2796 17.4444C23.2796 16.7298 22.6983 16.1484 21.9836 16.1484H16.1316C15.6137 16.1484 15.1925 15.7271 15.1925 15.2091C15.1925 14.6912 15.6137 14.2699 16.1316 14.2699ZM3.24073 28.4731C2.95769 28.7566 2.49637 28.7564 2.21289 28.4731C1.92904 28.1896 1.92904 27.7282 2.21289 27.4446L5.26496 24.3923C5.73794 24.6503 6.24766 24.8343 6.77637 24.9379L3.24073 28.4731ZM8.64673 24.4686V23.2314H7.80175C5.86657 23.2314 4.29164 21.6568 4.29164 19.7213V14.6138C4.29164 14.2728 4.014 13.9952 3.67317 13.9952C3.33191 13.9952 3.05422 14.2728 3.05422 14.6138V19.7213C3.05422 22.339 5.18409 24.4686 7.80175 24.4686H8.64673ZM8.64673 22.6153C7.91105 22.6419 7.24925 22.5831 6.67695 22.4386C5.61157 21.9958 4.86062 20.9448 4.86062 19.7213V14.6138C4.86062 14.0573 4.47564 13.5902 3.95785 13.4622V12.4449C3.95785 10.291 5.59509 9.30997 7.11556 9.30997C7.94864 9.30997 8.72225 9.58831 9.29455 10.0936C9.93577 10.6595 10.2741 11.4726 10.2741 12.4449V16.1484H8.01669C7.30207 16.1484 6.72066 16.7297 6.72066 17.4444C6.72066 18.1591 7.30207 18.7404 8.01669 18.7404H8.64673V22.6153ZM20.7854 28.0108V18.7404H9.21537V28.0108C9.21537 28.4118 9.5413 28.7381 9.94232 28.7381C10.3434 28.7381 10.6694 28.4118 10.6694 28.0108V25.4357C10.6694 25.3984 10.6768 25.3614 10.6911 25.3269C10.7054 25.2924 10.7264 25.261 10.7528 25.2346C10.7793 25.2082 10.8106 25.1873 10.8452 25.173C10.8797 25.1587 10.9167 25.1514 10.9541 25.1514H19.047C19.0844 25.1514 19.1213 25.1587 19.1558 25.173C19.1903 25.1873 19.2217 25.2082 19.2481 25.2346C19.2745 25.2611 19.2954 25.2924 19.3097 25.3269C19.324 25.3614 19.3313 25.3984 19.3313 25.4357V28.0108C19.3313 28.4118 19.6573 28.7381 20.0584 28.7381C20.4594 28.7381 20.7854 28.4118 20.7854 28.0108ZM8.01669 18.1717H21.9836C22.3847 18.1717 22.7107 17.8453 22.7107 17.4444C22.7107 17.0434 22.3847 16.7172 21.9836 16.7172H8.01669C7.61649 16.7172 7.28969 17.0434 7.28969 17.4444C7.28969 17.8453 7.61649 18.1717 8.01669 18.1717ZM22.1986 24.4686C24.8166 24.4686 26.9461 22.339 26.9461 19.7213V14.6138C26.9461 14.2728 26.6683 13.9952 26.3276 13.9952C25.9863 13.9952 25.7095 14.2728 25.7095 14.6138V19.7213C25.7095 21.6568 24.1345 23.2314 22.1986 23.2314H21.3543V24.4686H22.1986ZM27.7882 28.4731C27.5048 28.7564 27.0435 28.7566 26.7596 28.4731L23.2244 24.9379C23.7532 24.8342 24.263 24.6502 24.7362 24.3923L27.7882 27.4446C27.9244 27.5813 27.9995 27.764 27.9995 27.959C27.9995 28.1538 27.9244 28.3364 27.7882 28.4731ZM7.09985 2C8.38185 2 9.42535 3.04366 9.42535 4.32627C9.42535 5.60893 8.38185 6.65237 7.09985 6.65237C5.81669 6.65237 4.77358 5.60893 4.77358 4.32627C4.77358 3.04366 5.81669 2 7.09985 2Z" fill="#035C8A"/>
</svg>
